%TF.GenerationSoftware,KiCad,Pcbnew,9.0.1*%
%TF.CreationDate,2026-02-02T09:03:00-08:00*%
%TF.ProjectId,bus_adapter,6275735f-6164-4617-9074-65722e6b6963,rev?*%
%TF.SameCoordinates,Original*%
%TF.FileFunction,Legend,Top*%
%TF.FilePolarity,Positive*%
%FSLAX46Y46*%
G04 Gerber Fmt 4.6, Leading zero omitted, Abs format (unit mm)*
G04 Created by KiCad (PCBNEW 9.0.1) date 2026-02-02 09:03:00*
%MOMM*%
%LPD*%
G01*
G04 APERTURE LIST*
G04 Aperture macros list*
%AMRoundRect*
0 Rectangle with rounded corners*
0 $1 Rounding radius*
0 $2 $3 $4 $5 $6 $7 $8 $9 X,Y pos of 4 corners*
0 Add a 4 corners polygon primitive as box body*
4,1,4,$2,$3,$4,$5,$6,$7,$8,$9,$2,$3,0*
0 Add four circle primitives for the rounded corners*
1,1,$1+$1,$2,$3*
1,1,$1+$1,$4,$5*
1,1,$1+$1,$6,$7*
1,1,$1+$1,$8,$9*
0 Add four rect primitives between the rounded corners*
20,1,$1+$1,$2,$3,$4,$5,0*
20,1,$1+$1,$4,$5,$6,$7,0*
20,1,$1+$1,$6,$7,$8,$9,0*
20,1,$1+$1,$8,$9,$2,$3,0*%
G04 Aperture macros list end*
%ADD10C,0.150000*%
%ADD11C,0.120000*%
%ADD12C,0.200000*%
%ADD13RoundRect,0.250000X-0.262500X-0.450000X0.262500X-0.450000X0.262500X0.450000X-0.262500X0.450000X0*%
%ADD14R,1.700000X1.700000*%
%ADD15C,1.700000*%
%ADD16C,2.360000*%
%ADD17RoundRect,0.102000X0.704000X-0.704000X0.704000X0.704000X-0.704000X0.704000X-0.704000X-0.704000X0*%
%ADD18C,1.612000*%
G04 APERTURE END LIST*
D10*
X125333333Y-90454819D02*
X125000000Y-89978628D01*
X124761905Y-90454819D02*
X124761905Y-89454819D01*
X124761905Y-89454819D02*
X125142857Y-89454819D01*
X125142857Y-89454819D02*
X125238095Y-89502438D01*
X125238095Y-89502438D02*
X125285714Y-89550057D01*
X125285714Y-89550057D02*
X125333333Y-89645295D01*
X125333333Y-89645295D02*
X125333333Y-89788152D01*
X125333333Y-89788152D02*
X125285714Y-89883390D01*
X125285714Y-89883390D02*
X125238095Y-89931009D01*
X125238095Y-89931009D02*
X125142857Y-89978628D01*
X125142857Y-89978628D02*
X124761905Y-89978628D01*
X126285714Y-90454819D02*
X125714286Y-90454819D01*
X126000000Y-90454819D02*
X126000000Y-89454819D01*
X126000000Y-89454819D02*
X125904762Y-89597676D01*
X125904762Y-89597676D02*
X125809524Y-89692914D01*
X125809524Y-89692914D02*
X125714286Y-89740533D01*
X131954819Y-111833333D02*
X132669104Y-111833333D01*
X132669104Y-111833333D02*
X132811961Y-111880952D01*
X132811961Y-111880952D02*
X132907200Y-111976190D01*
X132907200Y-111976190D02*
X132954819Y-112119047D01*
X132954819Y-112119047D02*
X132954819Y-112214285D01*
X132954819Y-110833333D02*
X132954819Y-111404761D01*
X132954819Y-111119047D02*
X131954819Y-111119047D01*
X131954819Y-111119047D02*
X132097676Y-111214285D01*
X132097676Y-111214285D02*
X132192914Y-111309523D01*
X132192914Y-111309523D02*
X132240533Y-111404761D01*
D11*
%TO.C,R1*%
X127772936Y-90735000D02*
X128227064Y-90735000D01*
X127772936Y-89265000D02*
X128227064Y-89265000D01*
%TO.C,J2*%
X121440000Y-91470000D02*
X121440000Y-114390000D01*
X121440000Y-91470000D02*
X124100000Y-91470000D01*
X121440000Y-114390000D02*
X124100000Y-114390000D01*
X122770000Y-88870000D02*
X124100000Y-88870000D01*
X124100000Y-88870000D02*
X124100000Y-90200000D01*
X124100000Y-91470000D02*
X124100000Y-114390000D01*
D12*
%TO.C,J1*%
X126650000Y-110000000D02*
X131970000Y-110000000D01*
X126650000Y-93000000D02*
X131970000Y-93000000D01*
X139500000Y-110000000D02*
X139500000Y-93000000D01*
X126650000Y-110000000D02*
X126650000Y-93000000D01*
X135030000Y-110000000D02*
X139500000Y-110000000D01*
X135030000Y-93000000D02*
X139500000Y-93000000D01*
X131300000Y-92070000D02*
G75*
G02*
X131100000Y-92070000I-100000J0D01*
G01*
X131100000Y-92070000D02*
G75*
G02*
X131300000Y-92070000I100000J0D01*
G01*
%TD*%
%LPC*%
D13*
%TO.C,R1*%
X128912500Y-90000000D03*
X127087500Y-90000000D03*
%TD*%
D14*
%TO.C,J2*%
X122770000Y-90200000D03*
D15*
X122770000Y-92740000D03*
X122770000Y-95280000D03*
X122770000Y-97820000D03*
X122770000Y-100360000D03*
X122770000Y-102900000D03*
X122770000Y-105440000D03*
X122770000Y-107980000D03*
X122770000Y-110520000D03*
X122770000Y-113060000D03*
%TD*%
D16*
%TO.C,J1*%
X133500000Y-109000000D03*
X133500000Y-94000000D03*
D17*
X131200000Y-97930000D03*
D18*
X131200000Y-99970000D03*
X131200000Y-102010000D03*
X131200000Y-104050000D03*
X128660000Y-98950000D03*
X128660000Y-100990000D03*
X128660000Y-103030000D03*
X128660000Y-105070000D03*
%TD*%
%LPD*%
M02*
