%TF.GenerationSoftware,KiCad,Pcbnew,9.0.1*%
%TF.CreationDate,2026-02-02T09:03:00-08:00*%
%TF.ProjectId,bus_adapter,6275735f-6164-4617-9074-65722e6b6963,rev?*%
%TF.SameCoordinates,Original*%
%TF.FileFunction,Legend,Bot*%
%TF.FilePolarity,Positive*%
%FSLAX46Y46*%
G04 Gerber Fmt 4.6, Leading zero omitted, Abs format (unit mm)*
G04 Created by KiCad (PCBNEW 9.0.1) date 2026-02-02 09:03:00*
%MOMM*%
%LPD*%
G01*
G04 APERTURE LIST*
G04 Aperture macros list*
%AMRoundRect*
0 Rectangle with rounded corners*
0 $1 Rounding radius*
0 $2 $3 $4 $5 $6 $7 $8 $9 X,Y pos of 4 corners*
0 Add a 4 corners polygon primitive as box body*
4,1,4,$2,$3,$4,$5,$6,$7,$8,$9,$2,$3,0*
0 Add four circle primitives for the rounded corners*
1,1,$1+$1,$2,$3*
1,1,$1+$1,$4,$5*
1,1,$1+$1,$6,$7*
1,1,$1+$1,$8,$9*
0 Add four rect primitives between the rounded corners*
20,1,$1+$1,$2,$3,$4,$5,0*
20,1,$1+$1,$4,$5,$6,$7,0*
20,1,$1+$1,$6,$7,$8,$9,0*
20,1,$1+$1,$8,$9,$2,$3,0*%
G04 Aperture macros list end*
%ADD10C,0.100000*%
%ADD11R,1.700000X1.700000*%
%ADD12C,1.700000*%
%ADD13C,2.360000*%
%ADD14RoundRect,0.102000X0.704000X-0.704000X0.704000X0.704000X-0.704000X0.704000X-0.704000X-0.704000X0*%
%ADD15C,1.612000*%
G04 APERTURE END LIST*
D10*
X134628637Y-96857144D02*
X134628637Y-97142858D01*
X135128637Y-97000001D02*
X134628637Y-97000001D01*
X135128637Y-97309524D02*
X134628637Y-97309524D01*
X135128637Y-97523810D02*
X134866732Y-97523810D01*
X134866732Y-97523810D02*
X134819113Y-97500000D01*
X134819113Y-97500000D02*
X134795304Y-97452381D01*
X134795304Y-97452381D02*
X134795304Y-97380953D01*
X134795304Y-97380953D02*
X134819113Y-97333334D01*
X134819113Y-97333334D02*
X134842923Y-97309524D01*
X135104828Y-97952381D02*
X135128637Y-97904762D01*
X135128637Y-97904762D02*
X135128637Y-97809524D01*
X135128637Y-97809524D02*
X135104828Y-97761905D01*
X135104828Y-97761905D02*
X135057208Y-97738096D01*
X135057208Y-97738096D02*
X134866732Y-97738096D01*
X134866732Y-97738096D02*
X134819113Y-97761905D01*
X134819113Y-97761905D02*
X134795304Y-97809524D01*
X134795304Y-97809524D02*
X134795304Y-97904762D01*
X134795304Y-97904762D02*
X134819113Y-97952381D01*
X134819113Y-97952381D02*
X134866732Y-97976191D01*
X134866732Y-97976191D02*
X134914351Y-97976191D01*
X134914351Y-97976191D02*
X134961970Y-97738096D01*
X135128637Y-98190476D02*
X134795304Y-98190476D01*
X134890542Y-98190476D02*
X134842923Y-98214286D01*
X134842923Y-98214286D02*
X134819113Y-98238095D01*
X134819113Y-98238095D02*
X134795304Y-98285714D01*
X134795304Y-98285714D02*
X134795304Y-98333333D01*
X135128637Y-98500000D02*
X134795304Y-98500000D01*
X134842923Y-98500000D02*
X134819113Y-98523810D01*
X134819113Y-98523810D02*
X134795304Y-98571429D01*
X134795304Y-98571429D02*
X134795304Y-98642857D01*
X134795304Y-98642857D02*
X134819113Y-98690476D01*
X134819113Y-98690476D02*
X134866732Y-98714286D01*
X134866732Y-98714286D02*
X135128637Y-98714286D01*
X134866732Y-98714286D02*
X134819113Y-98738095D01*
X134819113Y-98738095D02*
X134795304Y-98785714D01*
X134795304Y-98785714D02*
X134795304Y-98857143D01*
X134795304Y-98857143D02*
X134819113Y-98904762D01*
X134819113Y-98904762D02*
X134866732Y-98928572D01*
X134866732Y-98928572D02*
X135128637Y-98928572D01*
X134795304Y-99380953D02*
X135128637Y-99380953D01*
X134795304Y-99166667D02*
X135057208Y-99166667D01*
X135057208Y-99166667D02*
X135104828Y-99190477D01*
X135104828Y-99190477D02*
X135128637Y-99238096D01*
X135128637Y-99238096D02*
X135128637Y-99309524D01*
X135128637Y-99309524D02*
X135104828Y-99357143D01*
X135104828Y-99357143D02*
X135081018Y-99380953D01*
X135128637Y-99571429D02*
X134795304Y-99833334D01*
X134795304Y-99571429D02*
X135128637Y-99833334D01*
X135104828Y-100380953D02*
X135128637Y-100452381D01*
X135128637Y-100452381D02*
X135128637Y-100571429D01*
X135128637Y-100571429D02*
X135104828Y-100619048D01*
X135104828Y-100619048D02*
X135081018Y-100642857D01*
X135081018Y-100642857D02*
X135033399Y-100666667D01*
X135033399Y-100666667D02*
X134985780Y-100666667D01*
X134985780Y-100666667D02*
X134938161Y-100642857D01*
X134938161Y-100642857D02*
X134914351Y-100619048D01*
X134914351Y-100619048D02*
X134890542Y-100571429D01*
X134890542Y-100571429D02*
X134866732Y-100476191D01*
X134866732Y-100476191D02*
X134842923Y-100428572D01*
X134842923Y-100428572D02*
X134819113Y-100404762D01*
X134819113Y-100404762D02*
X134771494Y-100380953D01*
X134771494Y-100380953D02*
X134723875Y-100380953D01*
X134723875Y-100380953D02*
X134676256Y-100404762D01*
X134676256Y-100404762D02*
X134652447Y-100428572D01*
X134652447Y-100428572D02*
X134628637Y-100476191D01*
X134628637Y-100476191D02*
X134628637Y-100595238D01*
X134628637Y-100595238D02*
X134652447Y-100666667D01*
X135104828Y-101071428D02*
X135128637Y-101023809D01*
X135128637Y-101023809D02*
X135128637Y-100928571D01*
X135128637Y-100928571D02*
X135104828Y-100880952D01*
X135104828Y-100880952D02*
X135057208Y-100857143D01*
X135057208Y-100857143D02*
X134866732Y-100857143D01*
X134866732Y-100857143D02*
X134819113Y-100880952D01*
X134819113Y-100880952D02*
X134795304Y-100928571D01*
X134795304Y-100928571D02*
X134795304Y-101023809D01*
X134795304Y-101023809D02*
X134819113Y-101071428D01*
X134819113Y-101071428D02*
X134866732Y-101095238D01*
X134866732Y-101095238D02*
X134914351Y-101095238D01*
X134914351Y-101095238D02*
X134961970Y-100857143D01*
X134795304Y-101309523D02*
X135128637Y-101309523D01*
X134842923Y-101309523D02*
X134819113Y-101333333D01*
X134819113Y-101333333D02*
X134795304Y-101380952D01*
X134795304Y-101380952D02*
X134795304Y-101452380D01*
X134795304Y-101452380D02*
X134819113Y-101499999D01*
X134819113Y-101499999D02*
X134866732Y-101523809D01*
X134866732Y-101523809D02*
X135128637Y-101523809D01*
X135104828Y-101738095D02*
X135128637Y-101785714D01*
X135128637Y-101785714D02*
X135128637Y-101880952D01*
X135128637Y-101880952D02*
X135104828Y-101928571D01*
X135104828Y-101928571D02*
X135057208Y-101952380D01*
X135057208Y-101952380D02*
X135033399Y-101952380D01*
X135033399Y-101952380D02*
X134985780Y-101928571D01*
X134985780Y-101928571D02*
X134961970Y-101880952D01*
X134961970Y-101880952D02*
X134961970Y-101809523D01*
X134961970Y-101809523D02*
X134938161Y-101761904D01*
X134938161Y-101761904D02*
X134890542Y-101738095D01*
X134890542Y-101738095D02*
X134866732Y-101738095D01*
X134866732Y-101738095D02*
X134819113Y-101761904D01*
X134819113Y-101761904D02*
X134795304Y-101809523D01*
X134795304Y-101809523D02*
X134795304Y-101880952D01*
X134795304Y-101880952D02*
X134819113Y-101928571D01*
X135128637Y-102238095D02*
X135104828Y-102190476D01*
X135104828Y-102190476D02*
X135081018Y-102166666D01*
X135081018Y-102166666D02*
X135033399Y-102142857D01*
X135033399Y-102142857D02*
X134890542Y-102142857D01*
X134890542Y-102142857D02*
X134842923Y-102166666D01*
X134842923Y-102166666D02*
X134819113Y-102190476D01*
X134819113Y-102190476D02*
X134795304Y-102238095D01*
X134795304Y-102238095D02*
X134795304Y-102309523D01*
X134795304Y-102309523D02*
X134819113Y-102357142D01*
X134819113Y-102357142D02*
X134842923Y-102380952D01*
X134842923Y-102380952D02*
X134890542Y-102404761D01*
X134890542Y-102404761D02*
X135033399Y-102404761D01*
X135033399Y-102404761D02*
X135081018Y-102380952D01*
X135081018Y-102380952D02*
X135104828Y-102357142D01*
X135104828Y-102357142D02*
X135128637Y-102309523D01*
X135128637Y-102309523D02*
X135128637Y-102238095D01*
X135128637Y-102619047D02*
X134795304Y-102619047D01*
X134890542Y-102619047D02*
X134842923Y-102642857D01*
X134842923Y-102642857D02*
X134819113Y-102666666D01*
X134819113Y-102666666D02*
X134795304Y-102714285D01*
X134795304Y-102714285D02*
X134795304Y-102761904D01*
X134866732Y-103476190D02*
X134890542Y-103547618D01*
X134890542Y-103547618D02*
X134914351Y-103571428D01*
X134914351Y-103571428D02*
X134961970Y-103595237D01*
X134961970Y-103595237D02*
X135033399Y-103595237D01*
X135033399Y-103595237D02*
X135081018Y-103571428D01*
X135081018Y-103571428D02*
X135104828Y-103547618D01*
X135104828Y-103547618D02*
X135128637Y-103499999D01*
X135128637Y-103499999D02*
X135128637Y-103309523D01*
X135128637Y-103309523D02*
X134628637Y-103309523D01*
X134628637Y-103309523D02*
X134628637Y-103476190D01*
X134628637Y-103476190D02*
X134652447Y-103523809D01*
X134652447Y-103523809D02*
X134676256Y-103547618D01*
X134676256Y-103547618D02*
X134723875Y-103571428D01*
X134723875Y-103571428D02*
X134771494Y-103571428D01*
X134771494Y-103571428D02*
X134819113Y-103547618D01*
X134819113Y-103547618D02*
X134842923Y-103523809D01*
X134842923Y-103523809D02*
X134866732Y-103476190D01*
X134866732Y-103476190D02*
X134866732Y-103309523D01*
X134795304Y-104023809D02*
X135128637Y-104023809D01*
X134795304Y-103809523D02*
X135057208Y-103809523D01*
X135057208Y-103809523D02*
X135104828Y-103833333D01*
X135104828Y-103833333D02*
X135128637Y-103880952D01*
X135128637Y-103880952D02*
X135128637Y-103952380D01*
X135128637Y-103952380D02*
X135104828Y-103999999D01*
X135104828Y-103999999D02*
X135081018Y-104023809D01*
X135104828Y-104238095D02*
X135128637Y-104285714D01*
X135128637Y-104285714D02*
X135128637Y-104380952D01*
X135128637Y-104380952D02*
X135104828Y-104428571D01*
X135104828Y-104428571D02*
X135057208Y-104452380D01*
X135057208Y-104452380D02*
X135033399Y-104452380D01*
X135033399Y-104452380D02*
X134985780Y-104428571D01*
X134985780Y-104428571D02*
X134961970Y-104380952D01*
X134961970Y-104380952D02*
X134961970Y-104309523D01*
X134961970Y-104309523D02*
X134938161Y-104261904D01*
X134938161Y-104261904D02*
X134890542Y-104238095D01*
X134890542Y-104238095D02*
X134866732Y-104238095D01*
X134866732Y-104238095D02*
X134819113Y-104261904D01*
X134819113Y-104261904D02*
X134795304Y-104309523D01*
X134795304Y-104309523D02*
X134795304Y-104380952D01*
X134795304Y-104380952D02*
X134819113Y-104428571D01*
X135128637Y-105047618D02*
X134628637Y-105047618D01*
X134866732Y-105047618D02*
X134866732Y-105333332D01*
X135128637Y-105333332D02*
X134628637Y-105333332D01*
X135128637Y-105785714D02*
X134866732Y-105785714D01*
X134866732Y-105785714D02*
X134819113Y-105761904D01*
X134819113Y-105761904D02*
X134795304Y-105714285D01*
X134795304Y-105714285D02*
X134795304Y-105619047D01*
X134795304Y-105619047D02*
X134819113Y-105571428D01*
X135104828Y-105785714D02*
X135128637Y-105738095D01*
X135128637Y-105738095D02*
X135128637Y-105619047D01*
X135128637Y-105619047D02*
X135104828Y-105571428D01*
X135104828Y-105571428D02*
X135057208Y-105547619D01*
X135057208Y-105547619D02*
X135009589Y-105547619D01*
X135009589Y-105547619D02*
X134961970Y-105571428D01*
X134961970Y-105571428D02*
X134938161Y-105619047D01*
X134938161Y-105619047D02*
X134938161Y-105738095D01*
X134938161Y-105738095D02*
X134914351Y-105785714D01*
X134795304Y-105952381D02*
X134795304Y-106142857D01*
X134628637Y-106023809D02*
X135057208Y-106023809D01*
X135057208Y-106023809D02*
X135104828Y-106047619D01*
X135104828Y-106047619D02*
X135128637Y-106095238D01*
X135128637Y-106095238D02*
X135128637Y-106142857D01*
X135933609Y-94559523D02*
X135433609Y-94559523D01*
X135933609Y-94773809D02*
X135671704Y-94773809D01*
X135671704Y-94773809D02*
X135624085Y-94749999D01*
X135624085Y-94749999D02*
X135600276Y-94702380D01*
X135600276Y-94702380D02*
X135600276Y-94630952D01*
X135600276Y-94630952D02*
X135624085Y-94583333D01*
X135624085Y-94583333D02*
X135647895Y-94559523D01*
X135600276Y-94940476D02*
X135600276Y-95130952D01*
X135433609Y-95011904D02*
X135862180Y-95011904D01*
X135862180Y-95011904D02*
X135909800Y-95035714D01*
X135909800Y-95035714D02*
X135933609Y-95083333D01*
X135933609Y-95083333D02*
X135933609Y-95130952D01*
X135600276Y-95226190D02*
X135600276Y-95416666D01*
X135433609Y-95297618D02*
X135862180Y-95297618D01*
X135862180Y-95297618D02*
X135909800Y-95321428D01*
X135909800Y-95321428D02*
X135933609Y-95369047D01*
X135933609Y-95369047D02*
X135933609Y-95416666D01*
X135600276Y-95583332D02*
X136100276Y-95583332D01*
X135624085Y-95583332D02*
X135600276Y-95630951D01*
X135600276Y-95630951D02*
X135600276Y-95726189D01*
X135600276Y-95726189D02*
X135624085Y-95773808D01*
X135624085Y-95773808D02*
X135647895Y-95797618D01*
X135647895Y-95797618D02*
X135695514Y-95821427D01*
X135695514Y-95821427D02*
X135838371Y-95821427D01*
X135838371Y-95821427D02*
X135885990Y-95797618D01*
X135885990Y-95797618D02*
X135909800Y-95773808D01*
X135909800Y-95773808D02*
X135933609Y-95726189D01*
X135933609Y-95726189D02*
X135933609Y-95630951D01*
X135933609Y-95630951D02*
X135909800Y-95583332D01*
X135909800Y-96011904D02*
X135933609Y-96059523D01*
X135933609Y-96059523D02*
X135933609Y-96154761D01*
X135933609Y-96154761D02*
X135909800Y-96202380D01*
X135909800Y-96202380D02*
X135862180Y-96226189D01*
X135862180Y-96226189D02*
X135838371Y-96226189D01*
X135838371Y-96226189D02*
X135790752Y-96202380D01*
X135790752Y-96202380D02*
X135766942Y-96154761D01*
X135766942Y-96154761D02*
X135766942Y-96083332D01*
X135766942Y-96083332D02*
X135743133Y-96035713D01*
X135743133Y-96035713D02*
X135695514Y-96011904D01*
X135695514Y-96011904D02*
X135671704Y-96011904D01*
X135671704Y-96011904D02*
X135624085Y-96035713D01*
X135624085Y-96035713D02*
X135600276Y-96083332D01*
X135600276Y-96083332D02*
X135600276Y-96154761D01*
X135600276Y-96154761D02*
X135624085Y-96202380D01*
X135885990Y-96440475D02*
X135909800Y-96464285D01*
X135909800Y-96464285D02*
X135933609Y-96440475D01*
X135933609Y-96440475D02*
X135909800Y-96416666D01*
X135909800Y-96416666D02*
X135885990Y-96440475D01*
X135885990Y-96440475D02*
X135933609Y-96440475D01*
X135624085Y-96440475D02*
X135647895Y-96464285D01*
X135647895Y-96464285D02*
X135671704Y-96440475D01*
X135671704Y-96440475D02*
X135647895Y-96416666D01*
X135647895Y-96416666D02*
X135624085Y-96440475D01*
X135624085Y-96440475D02*
X135671704Y-96440475D01*
X135409800Y-97035713D02*
X136052657Y-96607142D01*
X135409800Y-97559523D02*
X136052657Y-97130952D01*
X135600276Y-97940476D02*
X136005038Y-97940476D01*
X136005038Y-97940476D02*
X136052657Y-97916666D01*
X136052657Y-97916666D02*
X136076466Y-97892857D01*
X136076466Y-97892857D02*
X136100276Y-97845238D01*
X136100276Y-97845238D02*
X136100276Y-97773809D01*
X136100276Y-97773809D02*
X136076466Y-97726190D01*
X135909800Y-97940476D02*
X135933609Y-97892857D01*
X135933609Y-97892857D02*
X135933609Y-97797619D01*
X135933609Y-97797619D02*
X135909800Y-97750000D01*
X135909800Y-97750000D02*
X135885990Y-97726190D01*
X135885990Y-97726190D02*
X135838371Y-97702381D01*
X135838371Y-97702381D02*
X135695514Y-97702381D01*
X135695514Y-97702381D02*
X135647895Y-97726190D01*
X135647895Y-97726190D02*
X135624085Y-97750000D01*
X135624085Y-97750000D02*
X135600276Y-97797619D01*
X135600276Y-97797619D02*
X135600276Y-97892857D01*
X135600276Y-97892857D02*
X135624085Y-97940476D01*
X135933609Y-98178571D02*
X135600276Y-98178571D01*
X135433609Y-98178571D02*
X135457419Y-98154762D01*
X135457419Y-98154762D02*
X135481228Y-98178571D01*
X135481228Y-98178571D02*
X135457419Y-98202381D01*
X135457419Y-98202381D02*
X135433609Y-98178571D01*
X135433609Y-98178571D02*
X135481228Y-98178571D01*
X135600276Y-98345238D02*
X135600276Y-98535714D01*
X135433609Y-98416666D02*
X135862180Y-98416666D01*
X135862180Y-98416666D02*
X135909800Y-98440476D01*
X135909800Y-98440476D02*
X135933609Y-98488095D01*
X135933609Y-98488095D02*
X135933609Y-98535714D01*
X135933609Y-98702380D02*
X135433609Y-98702380D01*
X135933609Y-98916666D02*
X135671704Y-98916666D01*
X135671704Y-98916666D02*
X135624085Y-98892856D01*
X135624085Y-98892856D02*
X135600276Y-98845237D01*
X135600276Y-98845237D02*
X135600276Y-98773809D01*
X135600276Y-98773809D02*
X135624085Y-98726190D01*
X135624085Y-98726190D02*
X135647895Y-98702380D01*
X135600276Y-99369047D02*
X135933609Y-99369047D01*
X135600276Y-99154761D02*
X135862180Y-99154761D01*
X135862180Y-99154761D02*
X135909800Y-99178571D01*
X135909800Y-99178571D02*
X135933609Y-99226190D01*
X135933609Y-99226190D02*
X135933609Y-99297618D01*
X135933609Y-99297618D02*
X135909800Y-99345237D01*
X135909800Y-99345237D02*
X135885990Y-99369047D01*
X135933609Y-99607142D02*
X135433609Y-99607142D01*
X135624085Y-99607142D02*
X135600276Y-99654761D01*
X135600276Y-99654761D02*
X135600276Y-99749999D01*
X135600276Y-99749999D02*
X135624085Y-99797618D01*
X135624085Y-99797618D02*
X135647895Y-99821428D01*
X135647895Y-99821428D02*
X135695514Y-99845237D01*
X135695514Y-99845237D02*
X135838371Y-99845237D01*
X135838371Y-99845237D02*
X135885990Y-99821428D01*
X135885990Y-99821428D02*
X135909800Y-99797618D01*
X135909800Y-99797618D02*
X135933609Y-99749999D01*
X135933609Y-99749999D02*
X135933609Y-99654761D01*
X135933609Y-99654761D02*
X135909800Y-99607142D01*
X135885990Y-100059523D02*
X135909800Y-100083333D01*
X135909800Y-100083333D02*
X135933609Y-100059523D01*
X135933609Y-100059523D02*
X135909800Y-100035714D01*
X135909800Y-100035714D02*
X135885990Y-100059523D01*
X135885990Y-100059523D02*
X135933609Y-100059523D01*
X135909800Y-100511904D02*
X135933609Y-100464285D01*
X135933609Y-100464285D02*
X135933609Y-100369047D01*
X135933609Y-100369047D02*
X135909800Y-100321428D01*
X135909800Y-100321428D02*
X135885990Y-100297618D01*
X135885990Y-100297618D02*
X135838371Y-100273809D01*
X135838371Y-100273809D02*
X135695514Y-100273809D01*
X135695514Y-100273809D02*
X135647895Y-100297618D01*
X135647895Y-100297618D02*
X135624085Y-100321428D01*
X135624085Y-100321428D02*
X135600276Y-100369047D01*
X135600276Y-100369047D02*
X135600276Y-100464285D01*
X135600276Y-100464285D02*
X135624085Y-100511904D01*
X135933609Y-100797618D02*
X135909800Y-100749999D01*
X135909800Y-100749999D02*
X135885990Y-100726189D01*
X135885990Y-100726189D02*
X135838371Y-100702380D01*
X135838371Y-100702380D02*
X135695514Y-100702380D01*
X135695514Y-100702380D02*
X135647895Y-100726189D01*
X135647895Y-100726189D02*
X135624085Y-100749999D01*
X135624085Y-100749999D02*
X135600276Y-100797618D01*
X135600276Y-100797618D02*
X135600276Y-100869046D01*
X135600276Y-100869046D02*
X135624085Y-100916665D01*
X135624085Y-100916665D02*
X135647895Y-100940475D01*
X135647895Y-100940475D02*
X135695514Y-100964284D01*
X135695514Y-100964284D02*
X135838371Y-100964284D01*
X135838371Y-100964284D02*
X135885990Y-100940475D01*
X135885990Y-100940475D02*
X135909800Y-100916665D01*
X135909800Y-100916665D02*
X135933609Y-100869046D01*
X135933609Y-100869046D02*
X135933609Y-100797618D01*
X135933609Y-101178570D02*
X135600276Y-101178570D01*
X135647895Y-101178570D02*
X135624085Y-101202380D01*
X135624085Y-101202380D02*
X135600276Y-101249999D01*
X135600276Y-101249999D02*
X135600276Y-101321427D01*
X135600276Y-101321427D02*
X135624085Y-101369046D01*
X135624085Y-101369046D02*
X135671704Y-101392856D01*
X135671704Y-101392856D02*
X135933609Y-101392856D01*
X135671704Y-101392856D02*
X135624085Y-101416665D01*
X135624085Y-101416665D02*
X135600276Y-101464284D01*
X135600276Y-101464284D02*
X135600276Y-101535713D01*
X135600276Y-101535713D02*
X135624085Y-101583332D01*
X135624085Y-101583332D02*
X135671704Y-101607142D01*
X135671704Y-101607142D02*
X135933609Y-101607142D01*
X135409800Y-102202380D02*
X136052657Y-101773809D01*
X135909800Y-102345238D02*
X135933609Y-102392857D01*
X135933609Y-102392857D02*
X135933609Y-102488095D01*
X135933609Y-102488095D02*
X135909800Y-102535714D01*
X135909800Y-102535714D02*
X135862180Y-102559523D01*
X135862180Y-102559523D02*
X135838371Y-102559523D01*
X135838371Y-102559523D02*
X135790752Y-102535714D01*
X135790752Y-102535714D02*
X135766942Y-102488095D01*
X135766942Y-102488095D02*
X135766942Y-102416666D01*
X135766942Y-102416666D02*
X135743133Y-102369047D01*
X135743133Y-102369047D02*
X135695514Y-102345238D01*
X135695514Y-102345238D02*
X135671704Y-102345238D01*
X135671704Y-102345238D02*
X135624085Y-102369047D01*
X135624085Y-102369047D02*
X135600276Y-102416666D01*
X135600276Y-102416666D02*
X135600276Y-102488095D01*
X135600276Y-102488095D02*
X135624085Y-102535714D01*
X135909800Y-102750000D02*
X135933609Y-102797619D01*
X135933609Y-102797619D02*
X135933609Y-102892857D01*
X135933609Y-102892857D02*
X135909800Y-102940476D01*
X135909800Y-102940476D02*
X135862180Y-102964285D01*
X135862180Y-102964285D02*
X135838371Y-102964285D01*
X135838371Y-102964285D02*
X135790752Y-102940476D01*
X135790752Y-102940476D02*
X135766942Y-102892857D01*
X135766942Y-102892857D02*
X135766942Y-102821428D01*
X135766942Y-102821428D02*
X135743133Y-102773809D01*
X135743133Y-102773809D02*
X135695514Y-102750000D01*
X135695514Y-102750000D02*
X135671704Y-102750000D01*
X135671704Y-102750000D02*
X135624085Y-102773809D01*
X135624085Y-102773809D02*
X135600276Y-102821428D01*
X135600276Y-102821428D02*
X135600276Y-102892857D01*
X135600276Y-102892857D02*
X135624085Y-102940476D01*
X135933609Y-103250000D02*
X135909800Y-103202381D01*
X135909800Y-103202381D02*
X135862180Y-103178571D01*
X135862180Y-103178571D02*
X135433609Y-103178571D01*
X135933609Y-103440476D02*
X135600276Y-103440476D01*
X135433609Y-103440476D02*
X135457419Y-103416667D01*
X135457419Y-103416667D02*
X135481228Y-103440476D01*
X135481228Y-103440476D02*
X135457419Y-103464286D01*
X135457419Y-103464286D02*
X135433609Y-103440476D01*
X135433609Y-103440476D02*
X135481228Y-103440476D01*
X135600276Y-103630952D02*
X135933609Y-103750000D01*
X135933609Y-103750000D02*
X135600276Y-103869047D01*
X135933609Y-104059523D02*
X135600276Y-104059523D01*
X135433609Y-104059523D02*
X135457419Y-104035714D01*
X135457419Y-104035714D02*
X135481228Y-104059523D01*
X135481228Y-104059523D02*
X135457419Y-104083333D01*
X135457419Y-104083333D02*
X135433609Y-104059523D01*
X135433609Y-104059523D02*
X135481228Y-104059523D01*
X135600276Y-104297618D02*
X135933609Y-104297618D01*
X135647895Y-104297618D02*
X135624085Y-104321428D01*
X135624085Y-104321428D02*
X135600276Y-104369047D01*
X135600276Y-104369047D02*
X135600276Y-104440475D01*
X135600276Y-104440475D02*
X135624085Y-104488094D01*
X135624085Y-104488094D02*
X135671704Y-104511904D01*
X135671704Y-104511904D02*
X135933609Y-104511904D01*
X135909800Y-104726190D02*
X135933609Y-104773809D01*
X135933609Y-104773809D02*
X135933609Y-104869047D01*
X135933609Y-104869047D02*
X135909800Y-104916666D01*
X135909800Y-104916666D02*
X135862180Y-104940475D01*
X135862180Y-104940475D02*
X135838371Y-104940475D01*
X135838371Y-104940475D02*
X135790752Y-104916666D01*
X135790752Y-104916666D02*
X135766942Y-104869047D01*
X135766942Y-104869047D02*
X135766942Y-104797618D01*
X135766942Y-104797618D02*
X135743133Y-104749999D01*
X135743133Y-104749999D02*
X135695514Y-104726190D01*
X135695514Y-104726190D02*
X135671704Y-104726190D01*
X135671704Y-104726190D02*
X135624085Y-104749999D01*
X135624085Y-104749999D02*
X135600276Y-104797618D01*
X135600276Y-104797618D02*
X135600276Y-104869047D01*
X135600276Y-104869047D02*
X135624085Y-104916666D01*
X135409800Y-105511904D02*
X136052657Y-105083333D01*
X135600276Y-105607143D02*
X135600276Y-105797619D01*
X135433609Y-105678571D02*
X135862180Y-105678571D01*
X135862180Y-105678571D02*
X135909800Y-105702381D01*
X135909800Y-105702381D02*
X135933609Y-105750000D01*
X135933609Y-105750000D02*
X135933609Y-105797619D01*
X135933609Y-105964285D02*
X135433609Y-105964285D01*
X135933609Y-106178571D02*
X135671704Y-106178571D01*
X135671704Y-106178571D02*
X135624085Y-106154761D01*
X135624085Y-106154761D02*
X135600276Y-106107142D01*
X135600276Y-106107142D02*
X135600276Y-106035714D01*
X135600276Y-106035714D02*
X135624085Y-105988095D01*
X135624085Y-105988095D02*
X135647895Y-105964285D01*
X135909800Y-106607142D02*
X135933609Y-106559523D01*
X135933609Y-106559523D02*
X135933609Y-106464285D01*
X135933609Y-106464285D02*
X135909800Y-106416666D01*
X135909800Y-106416666D02*
X135862180Y-106392857D01*
X135862180Y-106392857D02*
X135671704Y-106392857D01*
X135671704Y-106392857D02*
X135624085Y-106416666D01*
X135624085Y-106416666D02*
X135600276Y-106464285D01*
X135600276Y-106464285D02*
X135600276Y-106559523D01*
X135600276Y-106559523D02*
X135624085Y-106607142D01*
X135624085Y-106607142D02*
X135671704Y-106630952D01*
X135671704Y-106630952D02*
X135719323Y-106630952D01*
X135719323Y-106630952D02*
X135766942Y-106392857D01*
X135933609Y-106845237D02*
X135600276Y-106845237D01*
X135695514Y-106845237D02*
X135647895Y-106869047D01*
X135647895Y-106869047D02*
X135624085Y-106892856D01*
X135624085Y-106892856D02*
X135600276Y-106940475D01*
X135600276Y-106940475D02*
X135600276Y-106988094D01*
X135933609Y-107154761D02*
X135600276Y-107154761D01*
X135647895Y-107154761D02*
X135624085Y-107178571D01*
X135624085Y-107178571D02*
X135600276Y-107226190D01*
X135600276Y-107226190D02*
X135600276Y-107297618D01*
X135600276Y-107297618D02*
X135624085Y-107345237D01*
X135624085Y-107345237D02*
X135671704Y-107369047D01*
X135671704Y-107369047D02*
X135933609Y-107369047D01*
X135671704Y-107369047D02*
X135624085Y-107392856D01*
X135624085Y-107392856D02*
X135600276Y-107440475D01*
X135600276Y-107440475D02*
X135600276Y-107511904D01*
X135600276Y-107511904D02*
X135624085Y-107559523D01*
X135624085Y-107559523D02*
X135671704Y-107583333D01*
X135671704Y-107583333D02*
X135933609Y-107583333D01*
X135600276Y-108035714D02*
X135933609Y-108035714D01*
X135600276Y-107821428D02*
X135862180Y-107821428D01*
X135862180Y-107821428D02*
X135909800Y-107845238D01*
X135909800Y-107845238D02*
X135933609Y-107892857D01*
X135933609Y-107892857D02*
X135933609Y-107964285D01*
X135933609Y-107964285D02*
X135909800Y-108011904D01*
X135909800Y-108011904D02*
X135885990Y-108035714D01*
X135933609Y-108226190D02*
X135600276Y-108488095D01*
X135600276Y-108226190D02*
X135933609Y-108488095D01*
%LPC*%
D11*
%TO.C,J2*%
X122770000Y-90200000D03*
D12*
X122770000Y-92740000D03*
X122770000Y-95280000D03*
X122770000Y-97820000D03*
X122770000Y-100360000D03*
X122770000Y-102900000D03*
X122770000Y-105440000D03*
X122770000Y-107980000D03*
X122770000Y-110520000D03*
X122770000Y-113060000D03*
%TD*%
D13*
%TO.C,J1*%
X133500000Y-109000000D03*
X133500000Y-94000000D03*
D14*
X131200000Y-97930000D03*
D15*
X131200000Y-99970000D03*
X131200000Y-102010000D03*
X131200000Y-104050000D03*
X128660000Y-98950000D03*
X128660000Y-100990000D03*
X128660000Y-103030000D03*
X128660000Y-105070000D03*
%TD*%
%LPD*%
M02*
