%TF.GenerationSoftware,KiCad,Pcbnew,9.0.1*%
%TF.CreationDate,2026-01-21T10:43:00-08:00*%
%TF.ProjectId,temp_node,74656d70-5f6e-46f6-9465-2e6b69636164,rev?*%
%TF.SameCoordinates,Original*%
%TF.FileFunction,Copper,L2,Bot*%
%TF.FilePolarity,Positive*%
%FSLAX46Y46*%
G04 Gerber Fmt 4.6, Leading zero omitted, Abs format (unit mm)*
G04 Created by KiCad (PCBNEW 9.0.1) date 2026-01-21 10:43:00*
%MOMM*%
%LPD*%
G01*
G04 APERTURE LIST*
G04 Aperture macros list*
%AMRoundRect*
0 Rectangle with rounded corners*
0 $1 Rounding radius*
0 $2 $3 $4 $5 $6 $7 $8 $9 X,Y pos of 4 corners*
0 Add a 4 corners polygon primitive as box body*
4,1,4,$2,$3,$4,$5,$6,$7,$8,$9,$2,$3,0*
0 Add four circle primitives for the rounded corners*
1,1,$1+$1,$2,$3*
1,1,$1+$1,$4,$5*
1,1,$1+$1,$6,$7*
1,1,$1+$1,$8,$9*
0 Add four rect primitives between the rounded corners*
20,1,$1+$1,$2,$3,$4,$5,0*
20,1,$1+$1,$4,$5,$6,$7,0*
20,1,$1+$1,$6,$7,$8,$9,0*
20,1,$1+$1,$8,$9,$2,$3,0*%
G04 Aperture macros list end*
%TA.AperFunction,ComponentPad*%
%ADD10R,1.408000X1.408000*%
%TD*%
%TA.AperFunction,ComponentPad*%
%ADD11C,1.408000*%
%TD*%
%TA.AperFunction,ComponentPad*%
%ADD12RoundRect,0.250000X0.600000X0.725000X-0.600000X0.725000X-0.600000X-0.725000X0.600000X-0.725000X0*%
%TD*%
%TA.AperFunction,ComponentPad*%
%ADD13O,1.700000X1.950000*%
%TD*%
%TA.AperFunction,Conductor*%
%ADD14C,0.200000*%
%TD*%
G04 APERTURE END LIST*
D10*
%TO.P,J1,1*%
%TO.N,unconnected-(J1-Pad1)*%
X69460000Y-92070000D03*
D11*
%TO.P,J1,2*%
%TO.N,unconnected-(J1-Pad2)*%
X72000000Y-91050000D03*
%TO.P,J1,3*%
%TO.N,unconnected-(J1-Pad3)*%
X69460000Y-90030000D03*
%TO.P,J1,4*%
%TO.N,/1WIRE_DATA*%
X72000000Y-89010000D03*
%TO.P,J1,5*%
%TO.N,GND*%
X69460000Y-87990000D03*
%TO.P,J1,6*%
%TO.N,unconnected-(J1-Pad6)*%
X72000000Y-86970000D03*
%TO.P,J1,7*%
%TO.N,/3V3_BUS*%
X69460000Y-85950000D03*
%TO.P,J1,8*%
%TO.N,GND*%
X72000000Y-84930000D03*
%TD*%
D12*
%TO.P,J2,1,Pin_1*%
%TO.N,GND*%
X83000000Y-85500000D03*
D13*
%TO.P,J2,2,Pin_2*%
%TO.N,/1WIRE_DATA*%
X80500000Y-85500000D03*
%TO.P,J2,3,Pin_3*%
%TO.N,/3V3_NODE*%
X78000000Y-85500000D03*
%TD*%
D10*
%TO.P,J3,1*%
%TO.N,unconnected-(J3-Pad1)*%
X91540000Y-84930000D03*
D11*
%TO.P,J3,2*%
%TO.N,unconnected-(J3-Pad2)*%
X89000000Y-85950000D03*
%TO.P,J3,3*%
%TO.N,unconnected-(J3-Pad3)*%
X91540000Y-86970000D03*
%TO.P,J3,4*%
%TO.N,/1WIRE_DATA*%
X89000000Y-87990000D03*
%TO.P,J3,5*%
%TO.N,GND*%
X91540000Y-89010000D03*
%TO.P,J3,6*%
%TO.N,unconnected-(J3-Pad6)*%
X89000000Y-90030000D03*
%TO.P,J3,7*%
%TO.N,/3V3_BUS*%
X91540000Y-91050000D03*
%TO.P,J3,8*%
%TO.N,GND*%
X89000000Y-92070000D03*
%TD*%
D14*
%TO.N,GND*%
X70495800Y-86954200D02*
X69460000Y-87990000D01*
X90504200Y-90045800D02*
X91540000Y-89010000D01*
X90504100Y-90045800D02*
X90504200Y-90045800D01*
X89000000Y-92070000D02*
X90504100Y-90565900D01*
X70495900Y-86434100D02*
X70495900Y-86954200D01*
X90504100Y-90565900D02*
X90504100Y-90045800D01*
X70495900Y-86954200D02*
X70495800Y-86954200D01*
X72000000Y-84930000D02*
X70495900Y-86434100D01*
%TO.N,/1WIRE_DATA*%
X80500000Y-85500000D02*
X79348300Y-85500000D01*
X76290000Y-89010000D02*
X79348300Y-85951700D01*
X79348300Y-85951700D02*
X79348300Y-85500000D01*
X72000000Y-89010000D02*
X76290000Y-89010000D01*
%TD*%
M02*
