%TF.GenerationSoftware,KiCad,Pcbnew,9.0.1*%
%TF.CreationDate,2026-01-21T10:43:00-08:00*%
%TF.ProjectId,temp_node,74656d70-5f6e-46f6-9465-2e6b69636164,rev?*%
%TF.SameCoordinates,Original*%
%TF.FileFunction,Legend,Top*%
%TF.FilePolarity,Positive*%
%FSLAX46Y46*%
G04 Gerber Fmt 4.6, Leading zero omitted, Abs format (unit mm)*
G04 Created by KiCad (PCBNEW 9.0.1) date 2026-01-21 10:43:00*
%MOMM*%
%LPD*%
G01*
G04 APERTURE LIST*
G04 Aperture macros list*
%AMRoundRect*
0 Rectangle with rounded corners*
0 $1 Rounding radius*
0 $2 $3 $4 $5 $6 $7 $8 $9 X,Y pos of 4 corners*
0 Add a 4 corners polygon primitive as box body*
4,1,4,$2,$3,$4,$5,$6,$7,$8,$9,$2,$3,0*
0 Add four circle primitives for the rounded corners*
1,1,$1+$1,$2,$3*
1,1,$1+$1,$4,$5*
1,1,$1+$1,$6,$7*
1,1,$1+$1,$8,$9*
0 Add four rect primitives between the rounded corners*
20,1,$1+$1,$2,$3,$4,$5,0*
20,1,$1+$1,$4,$5,$6,$7,0*
20,1,$1+$1,$6,$7,$8,$9,0*
20,1,$1+$1,$8,$9,$2,$3,0*%
G04 Aperture macros list end*
%ADD10C,0.150000*%
%ADD11C,0.200000*%
%ADD12C,0.120000*%
%ADD13C,2.360000*%
%ADD14RoundRect,0.102000X-0.704000X0.704000X-0.704000X-0.704000X0.704000X-0.704000X0.704000X0.704000X0*%
%ADD15C,1.612000*%
%ADD16C,2.200000*%
%ADD17RoundRect,0.250000X0.600000X0.725000X-0.600000X0.725000X-0.600000X-0.725000X0.600000X-0.725000X0*%
%ADD18O,1.700000X1.950000*%
%ADD19RoundRect,0.243750X-0.243750X-0.456250X0.243750X-0.456250X0.243750X0.456250X-0.243750X0.456250X0*%
%ADD20RoundRect,0.102000X0.704000X-0.704000X0.704000X0.704000X-0.704000X0.704000X-0.704000X-0.704000X0*%
%ADD21RoundRect,0.250000X-0.250000X-0.475000X0.250000X-0.475000X0.250000X0.475000X-0.250000X0.475000X0*%
G04 APERTURE END LIST*
D10*
X66666666Y-87954819D02*
X66666666Y-88669104D01*
X66666666Y-88669104D02*
X66619047Y-88811961D01*
X66619047Y-88811961D02*
X66523809Y-88907200D01*
X66523809Y-88907200D02*
X66380952Y-88954819D01*
X66380952Y-88954819D02*
X66285714Y-88954819D01*
X67666666Y-88954819D02*
X67095238Y-88954819D01*
X67380952Y-88954819D02*
X67380952Y-87954819D01*
X67380952Y-87954819D02*
X67285714Y-88097676D01*
X67285714Y-88097676D02*
X67190476Y-88192914D01*
X67190476Y-88192914D02*
X67095238Y-88240533D01*
X80166666Y-81504819D02*
X80166666Y-82219104D01*
X80166666Y-82219104D02*
X80119047Y-82361961D01*
X80119047Y-82361961D02*
X80023809Y-82457200D01*
X80023809Y-82457200D02*
X79880952Y-82504819D01*
X79880952Y-82504819D02*
X79785714Y-82504819D01*
X80595238Y-81600057D02*
X80642857Y-81552438D01*
X80642857Y-81552438D02*
X80738095Y-81504819D01*
X80738095Y-81504819D02*
X80976190Y-81504819D01*
X80976190Y-81504819D02*
X81071428Y-81552438D01*
X81071428Y-81552438D02*
X81119047Y-81600057D01*
X81119047Y-81600057D02*
X81166666Y-81695295D01*
X81166666Y-81695295D02*
X81166666Y-81790533D01*
X81166666Y-81790533D02*
X81119047Y-81933390D01*
X81119047Y-81933390D02*
X80547619Y-82504819D01*
X80547619Y-82504819D02*
X81166666Y-82504819D01*
X80116666Y-94931009D02*
X79783333Y-94931009D01*
X79783333Y-95454819D02*
X79783333Y-94454819D01*
X79783333Y-94454819D02*
X80259523Y-94454819D01*
X81164285Y-95454819D02*
X80592857Y-95454819D01*
X80878571Y-95454819D02*
X80878571Y-94454819D01*
X80878571Y-94454819D02*
X80783333Y-94597676D01*
X80783333Y-94597676D02*
X80688095Y-94692914D01*
X80688095Y-94692914D02*
X80592857Y-94740533D01*
X94166666Y-87904819D02*
X94166666Y-88619104D01*
X94166666Y-88619104D02*
X94119047Y-88761961D01*
X94119047Y-88761961D02*
X94023809Y-88857200D01*
X94023809Y-88857200D02*
X93880952Y-88904819D01*
X93880952Y-88904819D02*
X93785714Y-88904819D01*
X94547619Y-87904819D02*
X95166666Y-87904819D01*
X95166666Y-87904819D02*
X94833333Y-88285771D01*
X94833333Y-88285771D02*
X94976190Y-88285771D01*
X94976190Y-88285771D02*
X95071428Y-88333390D01*
X95071428Y-88333390D02*
X95119047Y-88381009D01*
X95119047Y-88381009D02*
X95166666Y-88476247D01*
X95166666Y-88476247D02*
X95166666Y-88714342D01*
X95166666Y-88714342D02*
X95119047Y-88809580D01*
X95119047Y-88809580D02*
X95071428Y-88857200D01*
X95071428Y-88857200D02*
X94976190Y-88904819D01*
X94976190Y-88904819D02*
X94690476Y-88904819D01*
X94690476Y-88904819D02*
X94595238Y-88857200D01*
X94595238Y-88857200D02*
X94547619Y-88809580D01*
X77333333Y-92359580D02*
X77285714Y-92407200D01*
X77285714Y-92407200D02*
X77142857Y-92454819D01*
X77142857Y-92454819D02*
X77047619Y-92454819D01*
X77047619Y-92454819D02*
X76904762Y-92407200D01*
X76904762Y-92407200D02*
X76809524Y-92311961D01*
X76809524Y-92311961D02*
X76761905Y-92216723D01*
X76761905Y-92216723D02*
X76714286Y-92026247D01*
X76714286Y-92026247D02*
X76714286Y-91883390D01*
X76714286Y-91883390D02*
X76761905Y-91692914D01*
X76761905Y-91692914D02*
X76809524Y-91597676D01*
X76809524Y-91597676D02*
X76904762Y-91502438D01*
X76904762Y-91502438D02*
X77047619Y-91454819D01*
X77047619Y-91454819D02*
X77142857Y-91454819D01*
X77142857Y-91454819D02*
X77285714Y-91502438D01*
X77285714Y-91502438D02*
X77333333Y-91550057D01*
X77714286Y-91550057D02*
X77761905Y-91502438D01*
X77761905Y-91502438D02*
X77857143Y-91454819D01*
X77857143Y-91454819D02*
X78095238Y-91454819D01*
X78095238Y-91454819D02*
X78190476Y-91502438D01*
X78190476Y-91502438D02*
X78238095Y-91550057D01*
X78238095Y-91550057D02*
X78285714Y-91645295D01*
X78285714Y-91645295D02*
X78285714Y-91740533D01*
X78285714Y-91740533D02*
X78238095Y-91883390D01*
X78238095Y-91883390D02*
X77666667Y-92454819D01*
X77666667Y-92454819D02*
X78285714Y-92454819D01*
X83333333Y-92359580D02*
X83285714Y-92407200D01*
X83285714Y-92407200D02*
X83142857Y-92454819D01*
X83142857Y-92454819D02*
X83047619Y-92454819D01*
X83047619Y-92454819D02*
X82904762Y-92407200D01*
X82904762Y-92407200D02*
X82809524Y-92311961D01*
X82809524Y-92311961D02*
X82761905Y-92216723D01*
X82761905Y-92216723D02*
X82714286Y-92026247D01*
X82714286Y-92026247D02*
X82714286Y-91883390D01*
X82714286Y-91883390D02*
X82761905Y-91692914D01*
X82761905Y-91692914D02*
X82809524Y-91597676D01*
X82809524Y-91597676D02*
X82904762Y-91502438D01*
X82904762Y-91502438D02*
X83047619Y-91454819D01*
X83047619Y-91454819D02*
X83142857Y-91454819D01*
X83142857Y-91454819D02*
X83285714Y-91502438D01*
X83285714Y-91502438D02*
X83333333Y-91550057D01*
X84285714Y-92454819D02*
X83714286Y-92454819D01*
X84000000Y-92454819D02*
X84000000Y-91454819D01*
X84000000Y-91454819D02*
X83904762Y-91597676D01*
X83904762Y-91597676D02*
X83809524Y-91692914D01*
X83809524Y-91692914D02*
X83714286Y-91740533D01*
D11*
%TO.C,J1*%
X61160000Y-80000000D02*
X61160000Y-97000000D01*
X65630000Y-80000000D02*
X61160000Y-80000000D01*
X65630000Y-97000000D02*
X61160000Y-97000000D01*
X74010000Y-80000000D02*
X68690000Y-80000000D01*
X74010000Y-80000000D02*
X74010000Y-97000000D01*
X74010000Y-97000000D02*
X68690000Y-97000000D01*
X69560000Y-97930000D02*
G75*
G02*
X69360000Y-97930000I-100000J0D01*
G01*
X69360000Y-97930000D02*
G75*
G02*
X69560000Y-97930000I100000J0D01*
G01*
D12*
%TO.C,J2*%
X75440000Y-76190000D02*
X75440000Y-87910000D01*
X75440000Y-87910000D02*
X76860000Y-87910000D01*
X76860000Y-83410000D02*
X80500000Y-83410000D01*
X76860000Y-87910000D02*
X76860000Y-83410000D01*
X77750000Y-76800000D02*
X77750000Y-82300000D01*
X77750000Y-82300000D02*
X78250000Y-82300000D01*
X78250000Y-76800000D02*
X77750000Y-76800000D01*
X78250000Y-82300000D02*
X78250000Y-76800000D01*
X80250000Y-76800000D02*
X80250000Y-82300000D01*
X80250000Y-82300000D02*
X80750000Y-82300000D01*
X80500000Y-76190000D02*
X75440000Y-76190000D01*
X80500000Y-76190000D02*
X85560000Y-76190000D01*
X80750000Y-76800000D02*
X80250000Y-76800000D01*
X80750000Y-82300000D02*
X80750000Y-76800000D01*
X82700000Y-87600000D02*
X83000000Y-87000000D01*
X82750000Y-76800000D02*
X82750000Y-82300000D01*
X82750000Y-82300000D02*
X83250000Y-82300000D01*
X83000000Y-87000000D02*
X83300000Y-87600000D01*
X83250000Y-76800000D02*
X82750000Y-76800000D01*
X83250000Y-82300000D02*
X83250000Y-76800000D01*
X83300000Y-87600000D02*
X82700000Y-87600000D01*
X84140000Y-83410000D02*
X80500000Y-83410000D01*
X84140000Y-87910000D02*
X84140000Y-83410000D01*
X85560000Y-76190000D02*
X85560000Y-87910000D01*
X85560000Y-87910000D02*
X84140000Y-87910000D01*
%TO.C,F1*%
X80191422Y-92290000D02*
X80708578Y-92290000D01*
X80191422Y-93710000D02*
X80708578Y-93710000D01*
D11*
%TO.C,J3*%
X86990000Y-80000000D02*
X92310000Y-80000000D01*
X86990000Y-97000000D02*
X86990000Y-80000000D01*
X86990000Y-97000000D02*
X92310000Y-97000000D01*
X95370000Y-80000000D02*
X99840000Y-80000000D01*
X95370000Y-97000000D02*
X99840000Y-97000000D01*
X99840000Y-97000000D02*
X99840000Y-80000000D01*
X91640000Y-79070000D02*
G75*
G02*
X91440000Y-79070000I-100000J0D01*
G01*
X91440000Y-79070000D02*
G75*
G02*
X91640000Y-79070000I100000J0D01*
G01*
D12*
%TO.C,C2*%
X77688748Y-89265000D02*
X78211252Y-89265000D01*
X77688748Y-90735000D02*
X78211252Y-90735000D01*
%TO.C,C1*%
X82638748Y-89265000D02*
X83161252Y-89265000D01*
X82638748Y-90735000D02*
X83161252Y-90735000D01*
%TD*%
%LPC*%
D13*
%TO.C,J1*%
X67160000Y-81000000D03*
X67160000Y-96000000D03*
D14*
X69460000Y-92070000D03*
D15*
X72000000Y-91050000D03*
X69460000Y-90030000D03*
X72000000Y-89010000D03*
X69460000Y-87990000D03*
X72000000Y-86970000D03*
X69460000Y-85950000D03*
X72000000Y-84930000D03*
%TD*%
D16*
%TO.C,H0*%
X84000000Y-96500000D03*
%TD*%
%TO.C,H1*%
X77000000Y-96500000D03*
%TD*%
D17*
%TO.C,J2*%
X83000000Y-85500000D03*
D18*
X80500000Y-85500000D03*
X78000000Y-85500000D03*
%TD*%
D19*
%TO.C,F1*%
X79512500Y-93000000D03*
X81387500Y-93000000D03*
%TD*%
D13*
%TO.C,J3*%
X93840000Y-96000000D03*
X93840000Y-81000000D03*
D20*
X91540000Y-84930000D03*
D15*
X89000000Y-85950000D03*
X91540000Y-86970000D03*
X89000000Y-87990000D03*
X91540000Y-89010000D03*
X89000000Y-90030000D03*
X91540000Y-91050000D03*
X89000000Y-92070000D03*
%TD*%
D21*
%TO.C,C2*%
X77000000Y-90000000D03*
X78900000Y-90000000D03*
%TD*%
%TO.C,C1*%
X81950000Y-90000000D03*
X83850000Y-90000000D03*
%TD*%
%LPD*%
M02*
