%TF.GenerationSoftware,KiCad,Pcbnew,9.0.1*%
%TF.CreationDate,2026-01-21T10:43:00-08:00*%
%TF.ProjectId,temp_node,74656d70-5f6e-46f6-9465-2e6b69636164,rev?*%
%TF.SameCoordinates,Original*%
%TF.FileFunction,Legend,Bot*%
%TF.FilePolarity,Positive*%
%FSLAX46Y46*%
G04 Gerber Fmt 4.6, Leading zero omitted, Abs format (unit mm)*
G04 Created by KiCad (PCBNEW 9.0.1) date 2026-01-21 10:43:00*
%MOMM*%
%LPD*%
G01*
G04 APERTURE LIST*
G04 Aperture macros list*
%AMRoundRect*
0 Rectangle with rounded corners*
0 $1 Rounding radius*
0 $2 $3 $4 $5 $6 $7 $8 $9 X,Y pos of 4 corners*
0 Add a 4 corners polygon primitive as box body*
4,1,4,$2,$3,$4,$5,$6,$7,$8,$9,$2,$3,0*
0 Add four circle primitives for the rounded corners*
1,1,$1+$1,$2,$3*
1,1,$1+$1,$4,$5*
1,1,$1+$1,$6,$7*
1,1,$1+$1,$8,$9*
0 Add four rect primitives between the rounded corners*
20,1,$1+$1,$2,$3,$4,$5,0*
20,1,$1+$1,$4,$5,$6,$7,0*
20,1,$1+$1,$6,$7,$8,$9,0*
20,1,$1+$1,$8,$9,$2,$3,0*%
G04 Aperture macros list end*
%ADD10C,0.150000*%
%ADD11C,0.100000*%
%ADD12C,2.360000*%
%ADD13RoundRect,0.102000X-0.704000X0.704000X-0.704000X-0.704000X0.704000X-0.704000X0.704000X0.704000X0*%
%ADD14C,1.612000*%
%ADD15C,2.200000*%
%ADD16RoundRect,0.250000X0.600000X0.725000X-0.600000X0.725000X-0.600000X-0.725000X0.600000X-0.725000X0*%
%ADD17O,1.700000X1.950000*%
%ADD18RoundRect,0.102000X0.704000X-0.704000X0.704000X0.704000X-0.704000X0.704000X-0.704000X-0.704000X0*%
G04 APERTURE END LIST*
D10*
X83829887Y-87186128D02*
X83901316Y-87150414D01*
X83901316Y-87150414D02*
X84008458Y-87150414D01*
X84008458Y-87150414D02*
X84115601Y-87186128D01*
X84115601Y-87186128D02*
X84187030Y-87257557D01*
X84187030Y-87257557D02*
X84222744Y-87328985D01*
X84222744Y-87328985D02*
X84258458Y-87471842D01*
X84258458Y-87471842D02*
X84258458Y-87578985D01*
X84258458Y-87578985D02*
X84222744Y-87721842D01*
X84222744Y-87721842D02*
X84187030Y-87793271D01*
X84187030Y-87793271D02*
X84115601Y-87864700D01*
X84115601Y-87864700D02*
X84008458Y-87900414D01*
X84008458Y-87900414D02*
X83937030Y-87900414D01*
X83937030Y-87900414D02*
X83829887Y-87864700D01*
X83829887Y-87864700D02*
X83794173Y-87828985D01*
X83794173Y-87828985D02*
X83794173Y-87578985D01*
X83794173Y-87578985D02*
X83937030Y-87578985D01*
X83472744Y-87900414D02*
X83472744Y-87150414D01*
X83472744Y-87150414D02*
X83044173Y-87900414D01*
X83044173Y-87900414D02*
X83044173Y-87150414D01*
X82687030Y-87900414D02*
X82687030Y-87150414D01*
X82687030Y-87150414D02*
X82508459Y-87150414D01*
X82508459Y-87150414D02*
X82401316Y-87186128D01*
X82401316Y-87186128D02*
X82329887Y-87257557D01*
X82329887Y-87257557D02*
X82294173Y-87328985D01*
X82294173Y-87328985D02*
X82258459Y-87471842D01*
X82258459Y-87471842D02*
X82258459Y-87578985D01*
X82258459Y-87578985D02*
X82294173Y-87721842D01*
X82294173Y-87721842D02*
X82329887Y-87793271D01*
X82329887Y-87793271D02*
X82401316Y-87864700D01*
X82401316Y-87864700D02*
X82508459Y-87900414D01*
X82508459Y-87900414D02*
X82687030Y-87900414D01*
D11*
X82815163Y-91518693D02*
X82815163Y-91018693D01*
X82815163Y-91018693D02*
X82624687Y-91018693D01*
X82624687Y-91018693D02*
X82577068Y-91042503D01*
X82577068Y-91042503D02*
X82553258Y-91066312D01*
X82553258Y-91066312D02*
X82529449Y-91113931D01*
X82529449Y-91113931D02*
X82529449Y-91185360D01*
X82529449Y-91185360D02*
X82553258Y-91232979D01*
X82553258Y-91232979D02*
X82577068Y-91256788D01*
X82577068Y-91256788D02*
X82624687Y-91280598D01*
X82624687Y-91280598D02*
X82815163Y-91280598D01*
X82315163Y-91518693D02*
X82315163Y-91185360D01*
X82315163Y-91018693D02*
X82338972Y-91042503D01*
X82338972Y-91042503D02*
X82315163Y-91066312D01*
X82315163Y-91066312D02*
X82291353Y-91042503D01*
X82291353Y-91042503D02*
X82315163Y-91018693D01*
X82315163Y-91018693D02*
X82315163Y-91066312D01*
X82077068Y-91185360D02*
X82077068Y-91518693D01*
X82077068Y-91232979D02*
X82053258Y-91209169D01*
X82053258Y-91209169D02*
X82005639Y-91185360D01*
X82005639Y-91185360D02*
X81934211Y-91185360D01*
X81934211Y-91185360D02*
X81886592Y-91209169D01*
X81886592Y-91209169D02*
X81862782Y-91256788D01*
X81862782Y-91256788D02*
X81862782Y-91518693D01*
X81410401Y-91185360D02*
X81410401Y-91518693D01*
X81529449Y-90994884D02*
X81648496Y-91352026D01*
X81648496Y-91352026D02*
X81338973Y-91352026D01*
X80767545Y-91328217D02*
X80386593Y-91328217D01*
X79767545Y-91518693D02*
X79767545Y-91018693D01*
X79767545Y-91018693D02*
X79648497Y-91018693D01*
X79648497Y-91018693D02*
X79577069Y-91042503D01*
X79577069Y-91042503D02*
X79529450Y-91090122D01*
X79529450Y-91090122D02*
X79505640Y-91137741D01*
X79505640Y-91137741D02*
X79481831Y-91232979D01*
X79481831Y-91232979D02*
X79481831Y-91304407D01*
X79481831Y-91304407D02*
X79505640Y-91399645D01*
X79505640Y-91399645D02*
X79529450Y-91447264D01*
X79529450Y-91447264D02*
X79577069Y-91494884D01*
X79577069Y-91494884D02*
X79648497Y-91518693D01*
X79648497Y-91518693D02*
X79767545Y-91518693D01*
X78934212Y-91566312D02*
X78981831Y-91542503D01*
X78981831Y-91542503D02*
X79029450Y-91494884D01*
X79029450Y-91494884D02*
X79100878Y-91423455D01*
X79100878Y-91423455D02*
X79148497Y-91399645D01*
X79148497Y-91399645D02*
X79196116Y-91399645D01*
X79172307Y-91518693D02*
X79219926Y-91494884D01*
X79219926Y-91494884D02*
X79267545Y-91447264D01*
X79267545Y-91447264D02*
X79291354Y-91352026D01*
X79291354Y-91352026D02*
X79291354Y-91185360D01*
X79291354Y-91185360D02*
X79267545Y-91090122D01*
X79267545Y-91090122D02*
X79219926Y-91042503D01*
X79219926Y-91042503D02*
X79172307Y-91018693D01*
X79172307Y-91018693D02*
X79077069Y-91018693D01*
X79077069Y-91018693D02*
X79029450Y-91042503D01*
X79029450Y-91042503D02*
X78981831Y-91090122D01*
X78981831Y-91090122D02*
X78958021Y-91185360D01*
X78958021Y-91185360D02*
X78958021Y-91352026D01*
X78958021Y-91352026D02*
X78981831Y-91447264D01*
X78981831Y-91447264D02*
X79029450Y-91494884D01*
X79029450Y-91494884D02*
X79077069Y-91518693D01*
X79077069Y-91518693D02*
X79172307Y-91518693D01*
X82815163Y-92323665D02*
X82815163Y-91823665D01*
X82815163Y-91823665D02*
X82624687Y-91823665D01*
X82624687Y-91823665D02*
X82577068Y-91847475D01*
X82577068Y-91847475D02*
X82553258Y-91871284D01*
X82553258Y-91871284D02*
X82529449Y-91918903D01*
X82529449Y-91918903D02*
X82529449Y-91990332D01*
X82529449Y-91990332D02*
X82553258Y-92037951D01*
X82553258Y-92037951D02*
X82577068Y-92061760D01*
X82577068Y-92061760D02*
X82624687Y-92085570D01*
X82624687Y-92085570D02*
X82815163Y-92085570D01*
X82315163Y-92323665D02*
X82315163Y-91990332D01*
X82315163Y-91823665D02*
X82338972Y-91847475D01*
X82338972Y-91847475D02*
X82315163Y-91871284D01*
X82315163Y-91871284D02*
X82291353Y-91847475D01*
X82291353Y-91847475D02*
X82315163Y-91823665D01*
X82315163Y-91823665D02*
X82315163Y-91871284D01*
X82077068Y-91990332D02*
X82077068Y-92323665D01*
X82077068Y-92037951D02*
X82053258Y-92014141D01*
X82053258Y-92014141D02*
X82005639Y-91990332D01*
X82005639Y-91990332D02*
X81934211Y-91990332D01*
X81934211Y-91990332D02*
X81886592Y-92014141D01*
X81886592Y-92014141D02*
X81862782Y-92061760D01*
X81862782Y-92061760D02*
X81862782Y-92323665D01*
X81386592Y-91823665D02*
X81624687Y-91823665D01*
X81624687Y-91823665D02*
X81648496Y-92061760D01*
X81648496Y-92061760D02*
X81624687Y-92037951D01*
X81624687Y-92037951D02*
X81577068Y-92014141D01*
X81577068Y-92014141D02*
X81458020Y-92014141D01*
X81458020Y-92014141D02*
X81410401Y-92037951D01*
X81410401Y-92037951D02*
X81386592Y-92061760D01*
X81386592Y-92061760D02*
X81362782Y-92109379D01*
X81362782Y-92109379D02*
X81362782Y-92228427D01*
X81362782Y-92228427D02*
X81386592Y-92276046D01*
X81386592Y-92276046D02*
X81410401Y-92299856D01*
X81410401Y-92299856D02*
X81458020Y-92323665D01*
X81458020Y-92323665D02*
X81577068Y-92323665D01*
X81577068Y-92323665D02*
X81624687Y-92299856D01*
X81624687Y-92299856D02*
X81648496Y-92276046D01*
X80767545Y-92133189D02*
X80386593Y-92133189D01*
X79505640Y-91847475D02*
X79553259Y-91823665D01*
X79553259Y-91823665D02*
X79624688Y-91823665D01*
X79624688Y-91823665D02*
X79696116Y-91847475D01*
X79696116Y-91847475D02*
X79743735Y-91895094D01*
X79743735Y-91895094D02*
X79767545Y-91942713D01*
X79767545Y-91942713D02*
X79791354Y-92037951D01*
X79791354Y-92037951D02*
X79791354Y-92109379D01*
X79791354Y-92109379D02*
X79767545Y-92204617D01*
X79767545Y-92204617D02*
X79743735Y-92252236D01*
X79743735Y-92252236D02*
X79696116Y-92299856D01*
X79696116Y-92299856D02*
X79624688Y-92323665D01*
X79624688Y-92323665D02*
X79577069Y-92323665D01*
X79577069Y-92323665D02*
X79505640Y-92299856D01*
X79505640Y-92299856D02*
X79481831Y-92276046D01*
X79481831Y-92276046D02*
X79481831Y-92109379D01*
X79481831Y-92109379D02*
X79577069Y-92109379D01*
X79267545Y-92323665D02*
X79267545Y-91823665D01*
X79267545Y-91823665D02*
X78981831Y-92323665D01*
X78981831Y-92323665D02*
X78981831Y-91823665D01*
X78743735Y-92323665D02*
X78743735Y-91823665D01*
X78743735Y-91823665D02*
X78624687Y-91823665D01*
X78624687Y-91823665D02*
X78553259Y-91847475D01*
X78553259Y-91847475D02*
X78505640Y-91895094D01*
X78505640Y-91895094D02*
X78481830Y-91942713D01*
X78481830Y-91942713D02*
X78458021Y-92037951D01*
X78458021Y-92037951D02*
X78458021Y-92109379D01*
X78458021Y-92109379D02*
X78481830Y-92204617D01*
X78481830Y-92204617D02*
X78505640Y-92252236D01*
X78505640Y-92252236D02*
X78553259Y-92299856D01*
X78553259Y-92299856D02*
X78624687Y-92323665D01*
X78624687Y-92323665D02*
X78743735Y-92323665D01*
X82815163Y-93128637D02*
X82815163Y-92628637D01*
X82815163Y-92628637D02*
X82624687Y-92628637D01*
X82624687Y-92628637D02*
X82577068Y-92652447D01*
X82577068Y-92652447D02*
X82553258Y-92676256D01*
X82553258Y-92676256D02*
X82529449Y-92723875D01*
X82529449Y-92723875D02*
X82529449Y-92795304D01*
X82529449Y-92795304D02*
X82553258Y-92842923D01*
X82553258Y-92842923D02*
X82577068Y-92866732D01*
X82577068Y-92866732D02*
X82624687Y-92890542D01*
X82624687Y-92890542D02*
X82815163Y-92890542D01*
X82315163Y-93128637D02*
X82315163Y-92795304D01*
X82315163Y-92628637D02*
X82338972Y-92652447D01*
X82338972Y-92652447D02*
X82315163Y-92676256D01*
X82315163Y-92676256D02*
X82291353Y-92652447D01*
X82291353Y-92652447D02*
X82315163Y-92628637D01*
X82315163Y-92628637D02*
X82315163Y-92676256D01*
X82077068Y-92795304D02*
X82077068Y-93128637D01*
X82077068Y-92842923D02*
X82053258Y-92819113D01*
X82053258Y-92819113D02*
X82005639Y-92795304D01*
X82005639Y-92795304D02*
X81934211Y-92795304D01*
X81934211Y-92795304D02*
X81886592Y-92819113D01*
X81886592Y-92819113D02*
X81862782Y-92866732D01*
X81862782Y-92866732D02*
X81862782Y-93128637D01*
X81672306Y-92628637D02*
X81338973Y-92628637D01*
X81338973Y-92628637D02*
X81553258Y-93128637D01*
X80767545Y-92938161D02*
X80386593Y-92938161D01*
X79815164Y-92628637D02*
X79505640Y-92628637D01*
X79505640Y-92628637D02*
X79672307Y-92819113D01*
X79672307Y-92819113D02*
X79600878Y-92819113D01*
X79600878Y-92819113D02*
X79553259Y-92842923D01*
X79553259Y-92842923D02*
X79529450Y-92866732D01*
X79529450Y-92866732D02*
X79505640Y-92914351D01*
X79505640Y-92914351D02*
X79505640Y-93033399D01*
X79505640Y-93033399D02*
X79529450Y-93081018D01*
X79529450Y-93081018D02*
X79553259Y-93104828D01*
X79553259Y-93104828D02*
X79600878Y-93128637D01*
X79600878Y-93128637D02*
X79743735Y-93128637D01*
X79743735Y-93128637D02*
X79791354Y-93104828D01*
X79791354Y-93104828D02*
X79815164Y-93081018D01*
X79362783Y-92628637D02*
X79196117Y-93128637D01*
X79196117Y-93128637D02*
X79029450Y-92628637D01*
X78910403Y-92628637D02*
X78600879Y-92628637D01*
X78600879Y-92628637D02*
X78767546Y-92819113D01*
X78767546Y-92819113D02*
X78696117Y-92819113D01*
X78696117Y-92819113D02*
X78648498Y-92842923D01*
X78648498Y-92842923D02*
X78624689Y-92866732D01*
X78624689Y-92866732D02*
X78600879Y-92914351D01*
X78600879Y-92914351D02*
X78600879Y-93033399D01*
X78600879Y-93033399D02*
X78624689Y-93081018D01*
X78624689Y-93081018D02*
X78648498Y-93104828D01*
X78648498Y-93104828D02*
X78696117Y-93128637D01*
X78696117Y-93128637D02*
X78838974Y-93128637D01*
X78838974Y-93128637D02*
X78886593Y-93104828D01*
X78886593Y-93104828D02*
X78910403Y-93081018D01*
X82815163Y-93933609D02*
X82815163Y-93433609D01*
X82815163Y-93433609D02*
X82624687Y-93433609D01*
X82624687Y-93433609D02*
X82577068Y-93457419D01*
X82577068Y-93457419D02*
X82553258Y-93481228D01*
X82553258Y-93481228D02*
X82529449Y-93528847D01*
X82529449Y-93528847D02*
X82529449Y-93600276D01*
X82529449Y-93600276D02*
X82553258Y-93647895D01*
X82553258Y-93647895D02*
X82577068Y-93671704D01*
X82577068Y-93671704D02*
X82624687Y-93695514D01*
X82624687Y-93695514D02*
X82815163Y-93695514D01*
X82315163Y-93933609D02*
X82315163Y-93600276D01*
X82315163Y-93433609D02*
X82338972Y-93457419D01*
X82338972Y-93457419D02*
X82315163Y-93481228D01*
X82315163Y-93481228D02*
X82291353Y-93457419D01*
X82291353Y-93457419D02*
X82315163Y-93433609D01*
X82315163Y-93433609D02*
X82315163Y-93481228D01*
X82077068Y-93600276D02*
X82077068Y-93933609D01*
X82077068Y-93647895D02*
X82053258Y-93624085D01*
X82053258Y-93624085D02*
X82005639Y-93600276D01*
X82005639Y-93600276D02*
X81934211Y-93600276D01*
X81934211Y-93600276D02*
X81886592Y-93624085D01*
X81886592Y-93624085D02*
X81862782Y-93671704D01*
X81862782Y-93671704D02*
X81862782Y-93933609D01*
X81553258Y-93647895D02*
X81600877Y-93624085D01*
X81600877Y-93624085D02*
X81624687Y-93600276D01*
X81624687Y-93600276D02*
X81648496Y-93552657D01*
X81648496Y-93552657D02*
X81648496Y-93528847D01*
X81648496Y-93528847D02*
X81624687Y-93481228D01*
X81624687Y-93481228D02*
X81600877Y-93457419D01*
X81600877Y-93457419D02*
X81553258Y-93433609D01*
X81553258Y-93433609D02*
X81458020Y-93433609D01*
X81458020Y-93433609D02*
X81410401Y-93457419D01*
X81410401Y-93457419D02*
X81386592Y-93481228D01*
X81386592Y-93481228D02*
X81362782Y-93528847D01*
X81362782Y-93528847D02*
X81362782Y-93552657D01*
X81362782Y-93552657D02*
X81386592Y-93600276D01*
X81386592Y-93600276D02*
X81410401Y-93624085D01*
X81410401Y-93624085D02*
X81458020Y-93647895D01*
X81458020Y-93647895D02*
X81553258Y-93647895D01*
X81553258Y-93647895D02*
X81600877Y-93671704D01*
X81600877Y-93671704D02*
X81624687Y-93695514D01*
X81624687Y-93695514D02*
X81648496Y-93743133D01*
X81648496Y-93743133D02*
X81648496Y-93838371D01*
X81648496Y-93838371D02*
X81624687Y-93885990D01*
X81624687Y-93885990D02*
X81600877Y-93909800D01*
X81600877Y-93909800D02*
X81553258Y-93933609D01*
X81553258Y-93933609D02*
X81458020Y-93933609D01*
X81458020Y-93933609D02*
X81410401Y-93909800D01*
X81410401Y-93909800D02*
X81386592Y-93885990D01*
X81386592Y-93885990D02*
X81362782Y-93838371D01*
X81362782Y-93838371D02*
X81362782Y-93743133D01*
X81362782Y-93743133D02*
X81386592Y-93695514D01*
X81386592Y-93695514D02*
X81410401Y-93671704D01*
X81410401Y-93671704D02*
X81458020Y-93647895D01*
X80767545Y-93743133D02*
X80386593Y-93743133D01*
X79505640Y-93457419D02*
X79553259Y-93433609D01*
X79553259Y-93433609D02*
X79624688Y-93433609D01*
X79624688Y-93433609D02*
X79696116Y-93457419D01*
X79696116Y-93457419D02*
X79743735Y-93505038D01*
X79743735Y-93505038D02*
X79767545Y-93552657D01*
X79767545Y-93552657D02*
X79791354Y-93647895D01*
X79791354Y-93647895D02*
X79791354Y-93719323D01*
X79791354Y-93719323D02*
X79767545Y-93814561D01*
X79767545Y-93814561D02*
X79743735Y-93862180D01*
X79743735Y-93862180D02*
X79696116Y-93909800D01*
X79696116Y-93909800D02*
X79624688Y-93933609D01*
X79624688Y-93933609D02*
X79577069Y-93933609D01*
X79577069Y-93933609D02*
X79505640Y-93909800D01*
X79505640Y-93909800D02*
X79481831Y-93885990D01*
X79481831Y-93885990D02*
X79481831Y-93719323D01*
X79481831Y-93719323D02*
X79577069Y-93719323D01*
X79267545Y-93933609D02*
X79267545Y-93433609D01*
X79267545Y-93433609D02*
X78981831Y-93933609D01*
X78981831Y-93933609D02*
X78981831Y-93433609D01*
X78743735Y-93933609D02*
X78743735Y-93433609D01*
X78743735Y-93433609D02*
X78624687Y-93433609D01*
X78624687Y-93433609D02*
X78553259Y-93457419D01*
X78553259Y-93457419D02*
X78505640Y-93505038D01*
X78505640Y-93505038D02*
X78481830Y-93552657D01*
X78481830Y-93552657D02*
X78458021Y-93647895D01*
X78458021Y-93647895D02*
X78458021Y-93719323D01*
X78458021Y-93719323D02*
X78481830Y-93814561D01*
X78481830Y-93814561D02*
X78505640Y-93862180D01*
X78505640Y-93862180D02*
X78553259Y-93909800D01*
X78553259Y-93909800D02*
X78624687Y-93933609D01*
X78624687Y-93933609D02*
X78743735Y-93933609D01*
D10*
X81222744Y-87900414D02*
X81222744Y-87150414D01*
X81222744Y-87150414D02*
X81044173Y-87150414D01*
X81044173Y-87150414D02*
X80937030Y-87186128D01*
X80937030Y-87186128D02*
X80865601Y-87257557D01*
X80865601Y-87257557D02*
X80829887Y-87328985D01*
X80829887Y-87328985D02*
X80794173Y-87471842D01*
X80794173Y-87471842D02*
X80794173Y-87578985D01*
X80794173Y-87578985D02*
X80829887Y-87721842D01*
X80829887Y-87721842D02*
X80865601Y-87793271D01*
X80865601Y-87793271D02*
X80937030Y-87864700D01*
X80937030Y-87864700D02*
X81044173Y-87900414D01*
X81044173Y-87900414D02*
X81222744Y-87900414D01*
X79972744Y-87971842D02*
X80044173Y-87936128D01*
X80044173Y-87936128D02*
X80115601Y-87864700D01*
X80115601Y-87864700D02*
X80222744Y-87757557D01*
X80222744Y-87757557D02*
X80294173Y-87721842D01*
X80294173Y-87721842D02*
X80365601Y-87721842D01*
X80329887Y-87900414D02*
X80401316Y-87864700D01*
X80401316Y-87864700D02*
X80472744Y-87793271D01*
X80472744Y-87793271D02*
X80508458Y-87650414D01*
X80508458Y-87650414D02*
X80508458Y-87400414D01*
X80508458Y-87400414D02*
X80472744Y-87257557D01*
X80472744Y-87257557D02*
X80401316Y-87186128D01*
X80401316Y-87186128D02*
X80329887Y-87150414D01*
X80329887Y-87150414D02*
X80187030Y-87150414D01*
X80187030Y-87150414D02*
X80115601Y-87186128D01*
X80115601Y-87186128D02*
X80044173Y-87257557D01*
X80044173Y-87257557D02*
X80008458Y-87400414D01*
X80008458Y-87400414D02*
X80008458Y-87650414D01*
X80008458Y-87650414D02*
X80044173Y-87793271D01*
X80044173Y-87793271D02*
X80115601Y-87864700D01*
X80115601Y-87864700D02*
X80187030Y-87900414D01*
X80187030Y-87900414D02*
X80329887Y-87900414D01*
X78794173Y-87150414D02*
X78329887Y-87150414D01*
X78329887Y-87150414D02*
X78579887Y-87436128D01*
X78579887Y-87436128D02*
X78472744Y-87436128D01*
X78472744Y-87436128D02*
X78401316Y-87471842D01*
X78401316Y-87471842D02*
X78365601Y-87507557D01*
X78365601Y-87507557D02*
X78329887Y-87578985D01*
X78329887Y-87578985D02*
X78329887Y-87757557D01*
X78329887Y-87757557D02*
X78365601Y-87828985D01*
X78365601Y-87828985D02*
X78401316Y-87864700D01*
X78401316Y-87864700D02*
X78472744Y-87900414D01*
X78472744Y-87900414D02*
X78687030Y-87900414D01*
X78687030Y-87900414D02*
X78758458Y-87864700D01*
X78758458Y-87864700D02*
X78794173Y-87828985D01*
X78115601Y-87150414D02*
X77865601Y-87900414D01*
X77865601Y-87900414D02*
X77615601Y-87150414D01*
X77437030Y-87150414D02*
X76972744Y-87150414D01*
X76972744Y-87150414D02*
X77222744Y-87436128D01*
X77222744Y-87436128D02*
X77115601Y-87436128D01*
X77115601Y-87436128D02*
X77044173Y-87471842D01*
X77044173Y-87471842D02*
X77008458Y-87507557D01*
X77008458Y-87507557D02*
X76972744Y-87578985D01*
X76972744Y-87578985D02*
X76972744Y-87757557D01*
X76972744Y-87757557D02*
X77008458Y-87828985D01*
X77008458Y-87828985D02*
X77044173Y-87864700D01*
X77044173Y-87864700D02*
X77115601Y-87900414D01*
X77115601Y-87900414D02*
X77329887Y-87900414D01*
X77329887Y-87900414D02*
X77401315Y-87864700D01*
X77401315Y-87864700D02*
X77437030Y-87828985D01*
D11*
X88838972Y-79372419D02*
X88267544Y-79372419D01*
X88553258Y-80372419D02*
X88553258Y-79372419D01*
X87553258Y-80324800D02*
X87648496Y-80372419D01*
X87648496Y-80372419D02*
X87838972Y-80372419D01*
X87838972Y-80372419D02*
X87934210Y-80324800D01*
X87934210Y-80324800D02*
X87981829Y-80229561D01*
X87981829Y-80229561D02*
X87981829Y-79848609D01*
X87981829Y-79848609D02*
X87934210Y-79753371D01*
X87934210Y-79753371D02*
X87838972Y-79705752D01*
X87838972Y-79705752D02*
X87648496Y-79705752D01*
X87648496Y-79705752D02*
X87553258Y-79753371D01*
X87553258Y-79753371D02*
X87505639Y-79848609D01*
X87505639Y-79848609D02*
X87505639Y-79943847D01*
X87505639Y-79943847D02*
X87981829Y-80039085D01*
X87077067Y-80372419D02*
X87077067Y-79705752D01*
X87077067Y-79800990D02*
X87029448Y-79753371D01*
X87029448Y-79753371D02*
X86934210Y-79705752D01*
X86934210Y-79705752D02*
X86791353Y-79705752D01*
X86791353Y-79705752D02*
X86696115Y-79753371D01*
X86696115Y-79753371D02*
X86648496Y-79848609D01*
X86648496Y-79848609D02*
X86648496Y-80372419D01*
X86648496Y-79848609D02*
X86600877Y-79753371D01*
X86600877Y-79753371D02*
X86505639Y-79705752D01*
X86505639Y-79705752D02*
X86362782Y-79705752D01*
X86362782Y-79705752D02*
X86267543Y-79753371D01*
X86267543Y-79753371D02*
X86219924Y-79848609D01*
X86219924Y-79848609D02*
X86219924Y-80372419D01*
X85743734Y-79705752D02*
X85743734Y-80705752D01*
X85743734Y-79753371D02*
X85648496Y-79705752D01*
X85648496Y-79705752D02*
X85458020Y-79705752D01*
X85458020Y-79705752D02*
X85362782Y-79753371D01*
X85362782Y-79753371D02*
X85315163Y-79800990D01*
X85315163Y-79800990D02*
X85267544Y-79896228D01*
X85267544Y-79896228D02*
X85267544Y-80181942D01*
X85267544Y-80181942D02*
X85315163Y-80277180D01*
X85315163Y-80277180D02*
X85362782Y-80324800D01*
X85362782Y-80324800D02*
X85458020Y-80372419D01*
X85458020Y-80372419D02*
X85648496Y-80372419D01*
X85648496Y-80372419D02*
X85743734Y-80324800D01*
X84458020Y-80324800D02*
X84553258Y-80372419D01*
X84553258Y-80372419D02*
X84743734Y-80372419D01*
X84743734Y-80372419D02*
X84838972Y-80324800D01*
X84838972Y-80324800D02*
X84886591Y-80229561D01*
X84886591Y-80229561D02*
X84886591Y-79848609D01*
X84886591Y-79848609D02*
X84838972Y-79753371D01*
X84838972Y-79753371D02*
X84743734Y-79705752D01*
X84743734Y-79705752D02*
X84553258Y-79705752D01*
X84553258Y-79705752D02*
X84458020Y-79753371D01*
X84458020Y-79753371D02*
X84410401Y-79848609D01*
X84410401Y-79848609D02*
X84410401Y-79943847D01*
X84410401Y-79943847D02*
X84886591Y-80039085D01*
X83981829Y-80372419D02*
X83981829Y-79705752D01*
X83981829Y-79896228D02*
X83934210Y-79800990D01*
X83934210Y-79800990D02*
X83886591Y-79753371D01*
X83886591Y-79753371D02*
X83791353Y-79705752D01*
X83791353Y-79705752D02*
X83696115Y-79705752D01*
X82934210Y-80372419D02*
X82934210Y-79848609D01*
X82934210Y-79848609D02*
X82981829Y-79753371D01*
X82981829Y-79753371D02*
X83077067Y-79705752D01*
X83077067Y-79705752D02*
X83267543Y-79705752D01*
X83267543Y-79705752D02*
X83362781Y-79753371D01*
X82934210Y-80324800D02*
X83029448Y-80372419D01*
X83029448Y-80372419D02*
X83267543Y-80372419D01*
X83267543Y-80372419D02*
X83362781Y-80324800D01*
X83362781Y-80324800D02*
X83410400Y-80229561D01*
X83410400Y-80229561D02*
X83410400Y-80134323D01*
X83410400Y-80134323D02*
X83362781Y-80039085D01*
X83362781Y-80039085D02*
X83267543Y-79991466D01*
X83267543Y-79991466D02*
X83029448Y-79991466D01*
X83029448Y-79991466D02*
X82934210Y-79943847D01*
X82600876Y-79705752D02*
X82219924Y-79705752D01*
X82458019Y-79372419D02*
X82458019Y-80229561D01*
X82458019Y-80229561D02*
X82410400Y-80324800D01*
X82410400Y-80324800D02*
X82315162Y-80372419D01*
X82315162Y-80372419D02*
X82219924Y-80372419D01*
X81458019Y-79705752D02*
X81458019Y-80372419D01*
X81886590Y-79705752D02*
X81886590Y-80229561D01*
X81886590Y-80229561D02*
X81838971Y-80324800D01*
X81838971Y-80324800D02*
X81743733Y-80372419D01*
X81743733Y-80372419D02*
X81600876Y-80372419D01*
X81600876Y-80372419D02*
X81505638Y-80324800D01*
X81505638Y-80324800D02*
X81458019Y-80277180D01*
X80981828Y-80372419D02*
X80981828Y-79705752D01*
X80981828Y-79896228D02*
X80934209Y-79800990D01*
X80934209Y-79800990D02*
X80886590Y-79753371D01*
X80886590Y-79753371D02*
X80791352Y-79705752D01*
X80791352Y-79705752D02*
X80696114Y-79705752D01*
X79981828Y-80324800D02*
X80077066Y-80372419D01*
X80077066Y-80372419D02*
X80267542Y-80372419D01*
X80267542Y-80372419D02*
X80362780Y-80324800D01*
X80362780Y-80324800D02*
X80410399Y-80229561D01*
X80410399Y-80229561D02*
X80410399Y-79848609D01*
X80410399Y-79848609D02*
X80362780Y-79753371D01*
X80362780Y-79753371D02*
X80267542Y-79705752D01*
X80267542Y-79705752D02*
X80077066Y-79705752D01*
X80077066Y-79705752D02*
X79981828Y-79753371D01*
X79981828Y-79753371D02*
X79934209Y-79848609D01*
X79934209Y-79848609D02*
X79934209Y-79943847D01*
X79934209Y-79943847D02*
X80410399Y-80039085D01*
X78743732Y-80372419D02*
X78743732Y-79372419D01*
X78743732Y-79372419D02*
X78172304Y-80372419D01*
X78172304Y-80372419D02*
X78172304Y-79372419D01*
X77553256Y-80372419D02*
X77648494Y-80324800D01*
X77648494Y-80324800D02*
X77696113Y-80277180D01*
X77696113Y-80277180D02*
X77743732Y-80181942D01*
X77743732Y-80181942D02*
X77743732Y-79896228D01*
X77743732Y-79896228D02*
X77696113Y-79800990D01*
X77696113Y-79800990D02*
X77648494Y-79753371D01*
X77648494Y-79753371D02*
X77553256Y-79705752D01*
X77553256Y-79705752D02*
X77410399Y-79705752D01*
X77410399Y-79705752D02*
X77315161Y-79753371D01*
X77315161Y-79753371D02*
X77267542Y-79800990D01*
X77267542Y-79800990D02*
X77219923Y-79896228D01*
X77219923Y-79896228D02*
X77219923Y-80181942D01*
X77219923Y-80181942D02*
X77267542Y-80277180D01*
X77267542Y-80277180D02*
X77315161Y-80324800D01*
X77315161Y-80324800D02*
X77410399Y-80372419D01*
X77410399Y-80372419D02*
X77553256Y-80372419D01*
X76362780Y-80372419D02*
X76362780Y-79372419D01*
X76362780Y-80324800D02*
X76458018Y-80372419D01*
X76458018Y-80372419D02*
X76648494Y-80372419D01*
X76648494Y-80372419D02*
X76743732Y-80324800D01*
X76743732Y-80324800D02*
X76791351Y-80277180D01*
X76791351Y-80277180D02*
X76838970Y-80181942D01*
X76838970Y-80181942D02*
X76838970Y-79896228D01*
X76838970Y-79896228D02*
X76791351Y-79800990D01*
X76791351Y-79800990D02*
X76743732Y-79753371D01*
X76743732Y-79753371D02*
X76648494Y-79705752D01*
X76648494Y-79705752D02*
X76458018Y-79705752D01*
X76458018Y-79705752D02*
X76362780Y-79753371D01*
X75505637Y-80324800D02*
X75600875Y-80372419D01*
X75600875Y-80372419D02*
X75791351Y-80372419D01*
X75791351Y-80372419D02*
X75886589Y-80324800D01*
X75886589Y-80324800D02*
X75934208Y-80229561D01*
X75934208Y-80229561D02*
X75934208Y-79848609D01*
X75934208Y-79848609D02*
X75886589Y-79753371D01*
X75886589Y-79753371D02*
X75791351Y-79705752D01*
X75791351Y-79705752D02*
X75600875Y-79705752D01*
X75600875Y-79705752D02*
X75505637Y-79753371D01*
X75505637Y-79753371D02*
X75458018Y-79848609D01*
X75458018Y-79848609D02*
X75458018Y-79943847D01*
X75458018Y-79943847D02*
X75934208Y-80039085D01*
X74362779Y-79705752D02*
X74124684Y-80372419D01*
X74124684Y-80372419D02*
X73886589Y-79705752D01*
X72981827Y-80372419D02*
X73553255Y-80372419D01*
X73267541Y-80372419D02*
X73267541Y-79372419D01*
X73267541Y-79372419D02*
X73362779Y-79515276D01*
X73362779Y-79515276D02*
X73458017Y-79610514D01*
X73458017Y-79610514D02*
X73553255Y-79658133D01*
X72553255Y-80277180D02*
X72505636Y-80324800D01*
X72505636Y-80324800D02*
X72553255Y-80372419D01*
X72553255Y-80372419D02*
X72600874Y-80324800D01*
X72600874Y-80324800D02*
X72553255Y-80277180D01*
X72553255Y-80277180D02*
X72553255Y-80372419D01*
X71553256Y-80372419D02*
X72124684Y-80372419D01*
X71838970Y-80372419D02*
X71838970Y-79372419D01*
X71838970Y-79372419D02*
X71934208Y-79515276D01*
X71934208Y-79515276D02*
X72029446Y-79610514D01*
X72029446Y-79610514D02*
X72124684Y-79658133D01*
%LPC*%
D12*
%TO.C,J1*%
X67160000Y-81000000D03*
X67160000Y-96000000D03*
D13*
X69460000Y-92070000D03*
D14*
X72000000Y-91050000D03*
X69460000Y-90030000D03*
X72000000Y-89010000D03*
X69460000Y-87990000D03*
X72000000Y-86970000D03*
X69460000Y-85950000D03*
X72000000Y-84930000D03*
%TD*%
D15*
%TO.C,H0*%
X84000000Y-96500000D03*
%TD*%
%TO.C,H1*%
X77000000Y-96500000D03*
%TD*%
D16*
%TO.C,J2*%
X83000000Y-85500000D03*
D17*
X80500000Y-85500000D03*
X78000000Y-85500000D03*
%TD*%
D12*
%TO.C,J3*%
X93840000Y-96000000D03*
X93840000Y-81000000D03*
D18*
X91540000Y-84930000D03*
D14*
X89000000Y-85950000D03*
X91540000Y-86970000D03*
X89000000Y-87990000D03*
X91540000Y-89010000D03*
X89000000Y-90030000D03*
X91540000Y-91050000D03*
X89000000Y-92070000D03*
%TD*%
%LPD*%
M02*
